<mxfile host="Electron" agent="Mozilla/5.0 (X11; Linux x86_64) AppleWebKit/537.36 (KHTML, like Gecko) draw.io/26.0.4 Chrome/128.0.6613.186 Electron/32.2.5 Safari/537.36" version="26.0.4">
  <diagram name="Page-1" id="83nVVDLE8LlJHE8DCV22">
    <mxGraphModel dx="2537" dy="1024" grid="1" gridSize="10" guides="1" tooltips="1" connect="1" arrows="1" fold="1" page="1" pageScale="1" pageWidth="850" pageHeight="1100" math="0" shadow="0">
      <root>
        <mxCell id="0" />
        <mxCell id="1" parent="0" />
        <mxCell id="snhUkKWnlMOE1s88p9TC-37" value="&lt;font style=&quot;font-size: 20px;&quot;&gt;Presentation Layer&lt;/font&gt;" style="rounded=0;labelPosition=center;verticalLabelPosition=middle;align=left;verticalAlign=top;whiteSpace=wrap;html=1;spacingLeft=20;spacingTop=10;" parent="1" vertex="1">
          <mxGeometry x="-80" y="160" width="880" height="200" as="geometry" />
        </mxCell>
        <mxCell id="snhUkKWnlMOE1s88p9TC-38" value="&lt;span style=&quot;font-size: 20px;&quot;&gt;User interface&lt;/span&gt;&lt;div&gt;&lt;span style=&quot;font-size: 20px;&quot;&gt;(web server, GUI,...)&lt;/span&gt;&lt;/div&gt;" style="rounded=1;whiteSpace=wrap;html=1;" parent="1" vertex="1">
          <mxGeometry x="150" y="235" width="200" height="85" as="geometry" />
        </mxCell>
        <mxCell id="snhUkKWnlMOE1s88p9TC-40" value="&lt;font style=&quot;font-size: 20px;&quot;&gt;Application Layer&lt;/font&gt;" style="rounded=0;labelPosition=center;verticalLabelPosition=middle;align=left;verticalAlign=top;whiteSpace=wrap;html=1;spacingLeft=20;spacingTop=10;" parent="1" vertex="1">
          <mxGeometry x="-80" y="440" width="880" height="400" as="geometry" />
        </mxCell>
        <mxCell id="snhUkKWnlMOE1s88p9TC-41" value="&lt;span style=&quot;font-size: 20px;&quot;&gt;Query builder&lt;/span&gt;" style="rounded=1;whiteSpace=wrap;html=1;" parent="1" vertex="1">
          <mxGeometry x="150" y="720" width="200" height="80" as="geometry" />
        </mxCell>
        <mxCell id="snhUkKWnlMOE1s88p9TC-43" value="&lt;span style=&quot;font-size: 20px;&quot;&gt;File exporter&lt;/span&gt;&lt;div&gt;&lt;span style=&quot;font-size: 20px;&quot;&gt;(e.g. wind farm layout)&lt;/span&gt;&lt;/div&gt;" style="rounded=1;whiteSpace=wrap;html=1;" parent="1" vertex="1">
          <mxGeometry x="520" y="240" width="240" height="80" as="geometry" />
        </mxCell>
        <mxCell id="snhUkKWnlMOE1s88p9TC-44" value="&lt;font style=&quot;font-size: 20px;&quot;&gt;Database Layer&lt;/font&gt;" style="rounded=0;labelPosition=center;verticalLabelPosition=middle;align=left;verticalAlign=top;whiteSpace=wrap;html=1;spacingLeft=20;spacingTop=10;" parent="1" vertex="1">
          <mxGeometry x="-80" y="920" width="880" height="160" as="geometry" />
        </mxCell>
        <mxCell id="snhUkKWnlMOE1s88p9TC-45" value="&lt;span style=&quot;font-size: 20px;&quot;&gt;Scenario processor&lt;/span&gt;" style="rounded=1;whiteSpace=wrap;html=1;" parent="1" vertex="1">
          <mxGeometry x="150" y="530" width="200" height="80" as="geometry" />
        </mxCell>
        <mxCell id="snhUkKWnlMOE1s88p9TC-46" value="&lt;span style=&quot;font-size: 20px;&quot;&gt;Optimization engine&lt;/span&gt;" style="rounded=1;whiteSpace=wrap;html=1;" parent="1" vertex="1">
          <mxGeometry x="520" y="720" width="240" height="80" as="geometry" />
        </mxCell>
        <mxCell id="snhUkKWnlMOE1s88p9TC-47" value="&lt;span style=&quot;font-size: 20px;&quot;&gt;Results processor&lt;/span&gt;" style="rounded=1;whiteSpace=wrap;html=1;" parent="1" vertex="1">
          <mxGeometry x="540" y="530" width="200" height="80" as="geometry" />
        </mxCell>
        <mxCell id="snhUkKWnlMOE1s88p9TC-48" value="&lt;span style=&quot;font-size: 20px;&quot;&gt;Query executor&lt;/span&gt;" style="rounded=1;whiteSpace=wrap;html=1;" parent="1" vertex="1">
          <mxGeometry x="320" y="960" width="200" height="80" as="geometry" />
        </mxCell>
        <mxCell id="snhUkKWnlMOE1s88p9TC-53" value="" style="endArrow=classic;html=1;rounded=0;exitX=0.5;exitY=1;exitDx=0;exitDy=0;entryX=0.25;entryY=0;entryDx=0;entryDy=0;" parent="1" source="snhUkKWnlMOE1s88p9TC-41" target="snhUkKWnlMOE1s88p9TC-48" edge="1">
          <mxGeometry width="50" height="50" relative="1" as="geometry">
            <mxPoint x="500" y="590" as="sourcePoint" />
            <mxPoint x="550" y="540" as="targetPoint" />
          </mxGeometry>
        </mxCell>
        <mxCell id="snhUkKWnlMOE1s88p9TC-55" value="" style="endArrow=classic;html=1;rounded=0;exitX=0.5;exitY=1;exitDx=0;exitDy=0;entryX=0.5;entryY=0;entryDx=0;entryDy=0;" parent="1" source="snhUkKWnlMOE1s88p9TC-38" target="snhUkKWnlMOE1s88p9TC-45" edge="1">
          <mxGeometry width="50" height="50" relative="1" as="geometry">
            <mxPoint x="500" y="590" as="sourcePoint" />
            <mxPoint x="550" y="540" as="targetPoint" />
          </mxGeometry>
        </mxCell>
        <mxCell id="snhUkKWnlMOE1s88p9TC-57" value="" style="endArrow=classic;html=1;rounded=0;exitX=0.25;exitY=1;exitDx=0;exitDy=0;entryX=0.5;entryY=0;entryDx=0;entryDy=0;" parent="1" source="snhUkKWnlMOE1s88p9TC-45" target="snhUkKWnlMOE1s88p9TC-41" edge="1">
          <mxGeometry width="50" height="50" relative="1" as="geometry">
            <mxPoint x="640" y="710" as="sourcePoint" />
            <mxPoint x="660" y="690" as="targetPoint" />
          </mxGeometry>
        </mxCell>
        <mxCell id="snhUkKWnlMOE1s88p9TC-59" value="" style="endArrow=classic;html=1;rounded=0;exitX=0.75;exitY=0;exitDx=0;exitDy=0;entryX=0.5;entryY=1;entryDx=0;entryDy=0;" parent="1" source="snhUkKWnlMOE1s88p9TC-46" target="snhUkKWnlMOE1s88p9TC-47" edge="1">
          <mxGeometry width="50" height="50" relative="1" as="geometry">
            <mxPoint x="610" y="740" as="sourcePoint" />
            <mxPoint x="660" y="690" as="targetPoint" />
          </mxGeometry>
        </mxCell>
        <mxCell id="snhUkKWnlMOE1s88p9TC-61" value="" style="endArrow=classic;html=1;rounded=0;entryX=0.5;entryY=1;entryDx=0;entryDy=0;exitX=0.75;exitY=0;exitDx=0;exitDy=0;" parent="1" source="snhUkKWnlMOE1s88p9TC-47" target="snhUkKWnlMOE1s88p9TC-43" edge="1">
          <mxGeometry width="50" height="50" relative="1" as="geometry">
            <mxPoint x="680" y="520" as="sourcePoint" />
            <mxPoint x="410" y="640" as="targetPoint" />
          </mxGeometry>
        </mxCell>
        <mxCell id="snhUkKWnlMOE1s88p9TC-62" value="" style="endArrow=classic;html=1;rounded=0;exitX=0.25;exitY=0;exitDx=0;exitDy=0;entryX=0.75;entryY=1;entryDx=0;entryDy=0;" parent="1" source="snhUkKWnlMOE1s88p9TC-47" target="snhUkKWnlMOE1s88p9TC-38" edge="1">
          <mxGeometry width="50" height="50" relative="1" as="geometry">
            <mxPoint x="360" y="690" as="sourcePoint" />
            <mxPoint x="410" y="640" as="targetPoint" />
          </mxGeometry>
        </mxCell>
        <mxCell id="snhUkKWnlMOE1s88p9TC-63" value="" style="endArrow=classic;html=1;rounded=0;exitX=0.75;exitY=0;exitDx=0;exitDy=0;entryX=0.5;entryY=1;entryDx=0;entryDy=0;" parent="1" source="snhUkKWnlMOE1s88p9TC-48" target="snhUkKWnlMOE1s88p9TC-46" edge="1">
          <mxGeometry width="50" height="50" relative="1" as="geometry">
            <mxPoint x="360" y="690" as="sourcePoint" />
            <mxPoint x="410" y="640" as="targetPoint" />
          </mxGeometry>
        </mxCell>
        <mxCell id="snhUkKWnlMOE1s88p9TC-64" value="" style="endArrow=classic;html=1;rounded=0;exitX=0.75;exitY=1;exitDx=0;exitDy=0;entryX=0.25;entryY=0;entryDx=0;entryDy=0;" parent="1" source="snhUkKWnlMOE1s88p9TC-45" target="snhUkKWnlMOE1s88p9TC-46" edge="1">
          <mxGeometry width="50" height="50" relative="1" as="geometry">
            <mxPoint x="470" y="700" as="sourcePoint" />
            <mxPoint x="520" y="650" as="targetPoint" />
          </mxGeometry>
        </mxCell>
      </root>
    </mxGraphModel>
  </diagram>
</mxfile>
